<svg xmlns="http://www.w3.org/2000/svg" width="512" height="512" viewBox="0 0 512 512" fill="none">
  <defs>
    <linearGradient id="bg" x1="54" y1="42" x2="458" y2="468" gradientUnits="userSpaceOnUse">
      <stop stop-color="#151B2F"/>
      <stop offset="1" stop-color="#080B14"/>
    </linearGradient>
    <linearGradient id="gold" x1="116" y1="130" x2="404" y2="384" gradientUnits="userSpaceOnUse">
      <stop stop-color="#F0CD7A"/>
      <stop offset="1" stop-color="#C9A84C"/>
    </linearGradient>
    <linearGradient id="ink" x1="150" y1="152" x2="362" y2="360" gradientUnits="userSpaceOnUse">
      <stop stop-color="#1A2136"/>
      <stop offset="1" stop-color="#0D1324"/>
    </linearGradient>
    <filter id="soft" x="72" y="76" width="368" height="360" filterUnits="userSpaceOnUse" color-interpolation-filters="sRGB">
      <feFlood flood-opacity="0" result="BackgroundImageFix"/>
      <feColorMatrix in="SourceAlpha" type="matrix" values="0 0 0 0 0 0 0 0 0 0 0 0 0 0 0 0 0 0 127 0" result="hardAlpha"/>
      <feOffset dy="10"/>
      <feGaussianBlur stdDeviation="12"/>
      <feComposite in2="hardAlpha" operator="out"/>
      <feColorMatrix type="matrix" values="0 0 0 0 0.788235 0 0 0 0 0.658824 0 0 0 0 0.298039 0 0 0 0.28 0"/>
      <feBlend mode="normal" in2="BackgroundImageFix" result="effect1_dropShadow_1_1"/>
      <feBlend mode="normal" in="SourceGraphic" in2="effect1_dropShadow_1_1" result="shape"/>
    </filter>
  </defs>

  <rect x="24" y="24" width="464" height="464" rx="120" fill="url(#bg)"/>
  <rect x="24" y="24" width="464" height="464" rx="120" stroke="#28314D" stroke-width="2"/>

  <g opacity="0.34">
    <path d="M72 140H440" stroke="#223050" stroke-width="1"/>
    <path d="M72 196H440" stroke="#223050" stroke-width="1"/>
    <path d="M72 252H440" stroke="#223050" stroke-width="1"/>
    <path d="M72 308H440" stroke="#223050" stroke-width="1"/>
    <path d="M72 364H440" stroke="#223050" stroke-width="1"/>
    <path d="M140 72V440" stroke="#223050" stroke-width="1"/>
    <path d="M196 72V440" stroke="#223050" stroke-width="1"/>
    <path d="M252 72V440" stroke="#223050" stroke-width="1"/>
    <path d="M308 72V440" stroke="#223050" stroke-width="1"/>
    <path d="M364 72V440" stroke="#223050" stroke-width="1"/>
  </g>

  <g filter="url(#soft)">
    <rect x="106" y="108" width="300" height="300" rx="72" fill="url(#gold)"/>
    <rect x="126" y="128" width="260" height="260" rx="56" fill="url(#ink)"/>

    <rect x="154" y="322" width="206" height="30" rx="15" fill="#10182C" stroke="#354368" stroke-width="2"/>
    <circle cx="326" cy="337" r="8" fill="#4A5C87"/>

    <path d="M180 292L226 246L258 274L322 210" stroke="url(#gold)" stroke-width="20" stroke-linecap="round" stroke-linejoin="round"/>
    <path d="M302 210H332V240" stroke="url(#gold)" stroke-width="16" stroke-linecap="round" stroke-linejoin="round"/>

    <circle cx="184" cy="170" r="26" fill="#1A233C" stroke="url(#gold)" stroke-width="6"/>
    <path d="M177 170H191" stroke="url(#gold)" stroke-width="6" stroke-linecap="round"/>
    <path d="M184 163V177" stroke="url(#gold)" stroke-width="6" stroke-linecap="round"/>
  </g>
</svg>
